<svg xmlns="http://www.w3.org/2000/svg" viewBox="0 0 512 512" width="512" height="512">
  <defs>
    <linearGradient id="bg" x1="0%" y1="0%" x2="100%" y2="100%">
      <stop offset="0%" stop-color="#0c1424"/>
      <stop offset="50%" stop-color="#0f172a"/>
      <stop offset="100%" stop-color="#161c30"/>
    </linearGradient>
    <linearGradient id="grad" x1="0%" y1="0%" x2="100%" y2="100%">
      <stop offset="0%" stop-color="#2dd4bf"/>
      <stop offset="100%" stop-color="#0d9488"/>
    </linearGradient>
    <linearGradient id="gold" x1="0%" y1="0%" x2="100%" y2="100%">
      <stop offset="0%" stop-color="#fbbf24"/>
      <stop offset="100%" stop-color="#f59e0b"/>
    </linearGradient>
  </defs>
  <rect width="512" height="512" rx="112" fill="url(#bg)"/>
  <rect width="504" height="504" x="4" y="4" rx="108" fill="none" stroke="url(#grad)" stroke-width="8" stroke-opacity="0.3"/>
  <!-- Graduation Cap -->
  <path d="M256 128 L64 216 L256 304 L448 216 Z" fill="url(#grad)"/>
  <path d="M128 252 L128 340 C128 384 256 416 256 416 C256 416 384 384 384 340 L384 252 L256 312 Z" fill="#0f766e" opacity="0.95"/>
  <!-- Tassel -->
  <path d="M416 230 L416 330 C416 345 400 355 400 355 L408 395 L392 395 L400 355" stroke="url(#gold)" stroke-width="12" stroke-linecap="round" stroke-linejoin="round" fill="none"/>
  <circle cx="256" cy="216" r="16" fill="url(#gold)"/>
  <!-- Star -->
  <polygon points="256,430 262,446 278,446 265,456 270,472 256,462 242,472 247,456 234,446 250,446" fill="url(#gold)"/>
</svg>

